<?xml version="1.0" encoding="utf-8"?>
<!-- Generator: Adobe Illustrator 23.0.4, SVG Export Plug-In . SVG Version: 6.00 Build 0)  -->
<svg version="1.1" id="Capa_1" xmlns="http://www.w3.org/2000/svg" xmlns:xlink="http://www.w3.org/1999/xlink" x="0px" y="0px"
	 viewBox="0 0 174.48 70" style="enable-background:new 0 0 174.48 70;" xml:space="preserve">
<style type="text/css">
	.st0{clip-path:url(#SVGID_2_);}
	.st1{fill:url(#SVGID_3_);}
	.st2{clip-path:url(#SVGID_5_);}
	.st3{fill:url(#SVGID_6_);}
	.st4{clip-path:url(#SVGID_8_);}
	.st5{fill:url(#SVGID_9_);}
	.st6{clip-path:url(#SVGID_11_);}
	.st7{fill:url(#SVGID_12_);}
	.st8{clip-path:url(#SVGID_14_);}
	.st9{fill:url(#SVGID_15_);}
	.st10{clip-path:url(#SVGID_17_);}
	.st11{fill:url(#SVGID_18_);}
</style>
<g>
	<g id="Capa_1-2">
		<g>
			<defs>
				<path id="SVGID_1_" d="M0,18.51c0,9.54,5.31,12.14,14.43,14.89c4.72,1.44,9.32,2.49,9.32,8.14c0,6.07-3.91,7.27-9.67,7.27
					C9.702,48.724,5.334,48.366,1,47.74l-0.85,7c4.653,0.979,9.395,1.472,14.15,1.47c11.9,0,18.62-4,18.62-14.93
					C32.92,32,28.29,28.49,19,26c-6.08-1.68-10.13-2.4-10.13-8.43c0-5.85,7.18-6,11.48-6c3.633,0.069,7.256,0.403,10.84,1L32,5.74
					c-4.611-0.92-9.298-1.402-14-1.44C6.42,4.3,0,7.77,0,18.51"/>
			</defs>
			<clipPath id="SVGID_2_">
				<use xlink:href="#SVGID_1_"  style="overflow:visible;"/>
			</clipPath>
			<g class="st0">
				
					<linearGradient id="SVGID_3_" gradientUnits="userSpaceOnUse" x1="-345.0019" y1="-263.5377" x2="-343.5919" y2="-263.5377" gradientTransform="matrix(-193.95 0 0 -193.95 -66740.2891 -51082.8711)">
					<stop  offset="0" style="stop-color:#009CDF"/>
					<stop  offset="0.04" style="stop-color:#009CDF"/>
					<stop  offset="0.85" style="stop-color:#9DC8B6"/>
					<stop  offset="1" style="stop-color:#9DC8B6"/>
				</linearGradient>
				<rect y="4.3" class="st1" width="32.92" height="51.91"/>
			</g>
		</g>
		<g>
			<defs>
				<path id="SVGID_4_" d="M48.56,44c0-4.54,1.44-5.78,5.48-6.72c3.484-0.64,7.018-0.968,10.56-0.98v7.16
					c0.009,1.743-0.071,3.485-0.24,5.22c-2.587,0.993-5.351,1.443-8.12,1.32C51.24,50,48.56,48.82,48.56,44 M42.14,17.7l0.68,6.07
					c4.479-0.607,8.991-0.941,13.51-1c5.92,0,8.27,2.71,8.27,8.1c-4.605,0.085-9.201,0.419-13.77,1
					c-7.51,1.14-10.46,5.39-10.46,12.18c0,8,4.13,12.12,14.66,12.12c7.24,0,13-1,17.37-3.41c0.21-2.35,0.32-4.58,0.32-7.14V28.53
					c0-9.91-7-12.25-15.6-12.25c-5.031,0.051-10.049,0.526-15,1.42"/>
			</defs>
			<clipPath id="SVGID_5_">
				<use xlink:href="#SVGID_4_"  style="overflow:visible;"/>
			</clipPath>
			<g class="st2">
				
					<linearGradient id="SVGID_6_" gradientUnits="userSpaceOnUse" x1="-345.0019" y1="-263.5533" x2="-343.5919" y2="-263.5533" gradientTransform="matrix(-193.95 0 0 -193.95 -66740.6484 -51079.9102)">
					<stop  offset="0" style="stop-color:#009CDF"/>
					<stop  offset="0.04" style="stop-color:#009CDF"/>
					<stop  offset="0.85" style="stop-color:#9DC8B6"/>
					<stop  offset="1" style="stop-color:#9DC8B6"/>
				</linearGradient>
				<rect x="40.37" y="16.28" class="st3" width="32.35" height="39.93"/>
			</g>
		</g>
		<g>
			<defs>
				<path id="SVGID_7_" d="M91.1,48.7V29.18c-0.013-1.73,0.067-3.459,0.24-5.18c2.244-0.932,4.661-1.378,7.09-1.31
					c9.28,0,9.78,6.44,9.78,13.6c0,7.83-0.2,13.53-10.57,13.53C95.417,49.772,93.213,49.394,91.1,48.7 M83.1,19.7
					c-0.21,2.35-0.32,4.58-0.32,7.14V70h8.32V55.14c2.78,0.68,5.628,1.039,8.49,1.07c11.85,0,17-5,17-20c0-15.24-5.37-20-18.14-20
					c-5.08,0-10.93,1-15.29,3.41"/>
			</defs>
			<clipPath id="SVGID_8_">
				<use xlink:href="#SVGID_7_"  style="overflow:visible;"/>
			</clipPath>
			<g class="st4">
				
					<linearGradient id="SVGID_9_" gradientUnits="userSpaceOnUse" x1="-345.0019" y1="-263.5556" x2="-343.5919" y2="-263.5556" gradientTransform="matrix(-193.95 0 0 -193.95 -66738.6328 -51073.4609)">
					<stop  offset="0" style="stop-color:#009CDF"/>
					<stop  offset="0.04" style="stop-color:#009CDF"/>
					<stop  offset="0.85" style="stop-color:#9DC8B6"/>
					<stop  offset="1" style="stop-color:#9DC8B6"/>
				</linearGradient>
				<rect x="82.82" y="16.28" class="st5" width="33.75" height="53.72"/>
			</g>
		</g>
		<g>
			<defs>
				<rect id="SVGID_10_" x="125.18" y="16.81" width="8.34" height="38.88"/>
			</defs>
			<clipPath id="SVGID_11_">
				<use xlink:href="#SVGID_10_"  style="overflow:visible;"/>
			</clipPath>
			<g class="st6">
				
					<linearGradient id="SVGID_12_" gradientUnits="userSpaceOnUse" x1="-345.0019" y1="-263.5467" x2="-343.5919" y2="-263.5467" gradientTransform="matrix(-193.92 0 0 -193.92 -66728.5312 -51070.7227)">
					<stop  offset="0" style="stop-color:#009CDF"/>
					<stop  offset="0.04" style="stop-color:#009CDF"/>
					<stop  offset="0.85" style="stop-color:#9DC8B6"/>
					<stop  offset="1" style="stop-color:#9DC8B6"/>
				</linearGradient>
				<rect x="125.18" y="16.81" class="st7" width="8.34" height="38.88"/>
			</g>
		</g>
		<g>
			<defs>
				<path id="SVGID_13_" d="M150.32,44c0-4.54,1.44-5.78,5.48-6.72c3.488-0.627,7.026-0.941,10.57-0.94v7.16
					c0.009,1.743-0.071,3.485-0.24,5.22c-2.594,0.979-5.361,1.415-8.13,1.28c-5,0-7.69-1.18-7.69-6 M143.9,17.7l0.68,6.07
					c4.479-0.607,8.991-0.941,13.51-1c5.92,0,8.28,2.71,8.28,8.1c-4.608,0.085-9.208,0.419-13.78,1
					c-7.5,1.14-10.45,5.39-10.45,12.18c0,8,4.12,12.12,14.64,12.12c7.25,0,13-1,17.38-3.41c0.22-2.35,0.32-4.58,0.32-7.14V28.53
					c0-9.91-7-12.25-15.6-12.25c-5.031,0.052-10.049,0.527-15,1.42"/>
			</defs>
			<clipPath id="SVGID_14_">
				<use xlink:href="#SVGID_13_"  style="overflow:visible;"/>
			</clipPath>
			<g class="st8">
				
					<linearGradient id="SVGID_15_" gradientUnits="userSpaceOnUse" x1="-345.0019" y1="-263.5521" x2="-343.5919" y2="-263.5521" gradientTransform="matrix(-193.9 0 0 -193.9 -66724.0781 -51066.5)">
					<stop  offset="0" style="stop-color:#009CDF"/>
					<stop  offset="0.04" style="stop-color:#009CDF"/>
					<stop  offset="0.85" style="stop-color:#9DC8B6"/>
					<stop  offset="1" style="stop-color:#9DC8B6"/>
				</linearGradient>
				<rect x="142.14" y="16.28" class="st9" width="32.34" height="39.93"/>
			</g>
		</g>
		<g>
			<defs>
				<path id="SVGID_16_" d="M129.32,0c-2.916,0.006-5.276,2.374-5.27,5.29c0,0.003,0,0.007,0,0.01v0.17
					c-0.127,2.919,2.136,5.388,5.055,5.515s5.388-2.136,5.515-5.055c0.007-0.153,0.007-0.307,0-0.46v-0.2
					C134.615,2.358,132.252,0,129.34,0l0,0"/>
			</defs>
			<clipPath id="SVGID_17_">
				<use xlink:href="#SVGID_16_"  style="overflow:visible;"/>
			</clipPath>
			<g class="st10">
				
					<linearGradient id="SVGID_18_" gradientUnits="userSpaceOnUse" x1="-345.0019" y1="-263.4953" x2="-343.5919" y2="-263.4953" gradientTransform="matrix(-193.89 0 0 -193.89 -66718.4297 -51083.7305)">
					<stop  offset="0" style="stop-color:#009CDF"/>
					<stop  offset="0.04" style="stop-color:#009CDF"/>
					<stop  offset="0.85" style="stop-color:#9DC8B6"/>
					<stop  offset="1" style="stop-color:#9DC8B6"/>
				</linearGradient>
				<rect x="124.04" class="st11" width="10.58" height="10.76"/>
			</g>
		</g>
	</g>
</g>
</svg>
